<svg xmlns="http://www.w3.org/2000/svg" width="54" height="54" viewBox="0 0 54 54">
  <metadata><?xpacket begin="﻿" id="W5M0MpCehiHzreSzNTczkc9d"?>
<x:xmpmeta xmlns:x="adobe:ns:meta/" x:xmptk="Adobe XMP Core 5.6-c138 79.159824, 2016/09/14-01:09:01        ">
   <rdf:RDF xmlns:rdf="http://www.w3.org/1999/02/22-rdf-syntax-ns#">
      <rdf:Description rdf:about=""/>
   </rdf:RDF>
</x:xmpmeta>
                                                                                                    
                                                                                                    
                                                                                                    
                                                                                                    
                                                                                                    
                                                                                                    
                                                                                                    
                                                                                                    
                                                                                                    
                                                                                                    
                                                                                                    
                                                                                                    
                                                                                                    
                                                                                                    
                                                                                                    
                                                                                                    
                                                                                                    
                                                                                                    
                                                                                                    
                                                                                                    
                           
<?xpacket end="w"?></metadata>
<defs>
    <style>
      .cls-1 {
        fill: #f5c506;
        fill-rule: evenodd;
      }
    </style>
  </defs>
  <path id="footer-1" class="cls-1" d="M140,1824.78l8.51-8.78-8.51-8.78h7.218l8.511,8.78-8.511,8.78H140Zm10.955,0,8.511-8.78-8.511-8.78h7.219l8.511,8.78-8.511,8.78H150.95Zm43.055,0L185.5,1816l8.51-8.78h-7.219l-8.51,8.78,8.51,8.78h7.219Zm-10.956,0-8.51-8.78,8.51-8.78h-7.218L167.32,1816l8.511,8.78h7.218Zm-24.829-35.79,8.78,8.51,8.78-8.51v7.22l-8.78,8.51-8.78-8.51v-7.22Zm0,10.96,8.78,8.51,8.78-8.51v7.22l-8.78,8.51-8.78-8.51v-7.22Zm0,43.06,8.78-8.51,8.78,8.51v-7.22l-8.78-8.51-8.78,8.51v7.22Zm0-10.96,8.78-8.51,8.78,8.51v-7.22l-8.78-8.51-8.78,8.51v7.22Z" transform="translate(-140 -1789)"/>
</svg>
